<?xml version="1.0" encoding="utf-8"?>
<!-- Generator: Adobe Illustrator 22.1.0, SVG Export Plug-In . SVG Version: 6.00 Build 0)  -->
<svg version="1.1" id="Layer_1" xmlns="http://www.w3.org/2000/svg" xmlns:xlink="http://www.w3.org/1999/xlink" x="0px" y="0px"
	 viewBox="0 0 4000 4000" style="enable-background:new 0 0 4000 4000;" xml:space="preserve">
<style type="text/css">
	.st0{fill:#4385F5;}
	.st1{fill:#34A853;}
	.st2{fill:#FABC05;}
	.st3{fill:#EA4235;}
</style>
<g>
	<path class="st0" d="M2545.9,2687.6c152.7-100.4,272.7-246.4,340.5-418.7l3.1-7l-852.2-0.7v-564.5h1446
		c13.7,80,20.8,162.2,20.8,246.1c0,108.5-11.9,214.2-34.6,315.9c-69,309.7-237.2,582-469.6,781.7L2545.9,2687.6z"/>
	<path class="st1" d="M2999.9,3040.4c-253.2,217.6-582.5,349.1-942.5,349.1c-570.8,0-1064.3-330.5-1299.7-810.6l453.5-357.8
		c116.8,355.6,451.6,612.3,846.2,612.3c180.4,0,348.3-53.6,488.5-145.8L2999.9,3040.4z"/>
	<path class="st2" d="M759.8,1302.5c-95.4,193-149.1,410.4-149.1,640.3c0,228.2,52.8,444.1,147,636.1l453.7-357.2
		c-28.9-87.7-44.5-181.5-44.5-278.9c0-99.7,16.8-197,47.1-286.5L759.8,1302.5z"/>
	<path class="st3" d="M1214,1656.3c119.3-351.3,451.9-604.1,843.5-604.1c214.7,0,411.6,75.9,565.4,202.4L3014.6,858
		c-255.1-225.2-590.2-361.9-957.2-361.9c-569.1,0-1061.4,328.6-1297.6,806.4L1214,1656.3z"/>
</g>
</svg>
